<svg width="42" height="44" viewBox="0 0 42 44" fill="none" xmlns="http://www.w3.org/2000/svg">
<path d="M0.660867 44V36.5202H8.68537V36.185C6.21307 34.6067 4.25758 32.5324 2.81889 29.9624C1.38021 27.3923 0.660867 24.3124 0.660867 20.7227C0.660867 17.7615 1.15672 15.0447 2.14844 12.5724C3.14015 10.1001 4.54392 7.97005 6.35973 6.18217C8.17554 4.38032 10.3196 2.98354 12.7919 1.99183C15.2782 1.00012 18.0019 0.50426 20.9631 0.50426C23.9242 0.50426 26.641 1.00012 29.1133 1.99183C31.5996 2.98354 33.7506 4.38032 35.5664 6.18217C37.3822 7.97005 38.786 10.1001 39.7777 12.5724C40.7694 15.0447 41.2653 17.7615 41.2653 20.7227C41.2653 24.3124 40.5459 27.3923 39.1072 29.9624C37.6686 32.5324 35.7131 34.6067 33.2408 36.185V36.5202H41.2653V44H24.2525V34.6136C25.761 33.9991 27.1089 33.0492 28.2962 31.7642C29.4834 30.4792 30.4123 28.9567 31.0827 27.1967C31.7672 25.4228 32.1094 23.4953 32.1094 21.4141C32.1094 18.9697 31.6345 16.7837 30.6847 14.8562C29.7488 12.9147 28.4428 11.3852 26.7667 10.2678C25.0906 9.15033 23.156 8.59162 20.9631 8.59162C19.3428 8.59162 17.8482 8.91288 16.4794 9.5554C15.1106 10.1839 13.9303 11.0779 12.9386 12.2372C11.9469 13.3965 11.1786 14.7584 10.6339 16.3228C10.0891 17.8732 9.81676 19.5703 9.81676 21.4141C9.81676 23.4953 10.152 25.4228 10.8224 27.1967C11.5069 28.9567 12.4427 30.4792 13.63 31.7642C14.8172 33.0492 16.1651 33.9991 17.6737 34.6136V44H0.660867Z" fill="white"/>
<path d="M0.660867 44H-0.339133V45H0.660867V44ZM0.660867 36.5202V35.5202H-0.339133V36.5202H0.660867ZM8.68537 36.5202V37.5202H9.68537V36.5202H8.68537ZM8.68537 36.185H9.68537V35.637L9.22348 35.3421L8.68537 36.185ZM2.81889 29.9624L1.94631 30.4508L1.94631 30.4508L2.81889 29.9624ZM2.14844 12.5724L1.22032 12.2001L1.22032 12.2001L2.14844 12.5724ZM6.35973 6.18217L7.06134 6.89474L7.0641 6.892L6.35973 6.18217ZM12.7919 1.99183L12.4214 1.06299L12.4196 1.06372L12.7919 1.99183ZM29.1133 1.99183L28.741 2.91995L28.7428 2.92067L29.1133 1.99183ZM35.5664 6.18217L34.862 6.89201L34.8648 6.89474L35.5664 6.18217ZM39.7777 12.5724L40.7058 12.2001L40.7058 12.2001L39.7777 12.5724ZM39.1072 29.9624L39.9798 30.4508L39.9798 30.4508L39.1072 29.9624ZM33.2408 36.185L32.7027 35.3421L32.2408 35.637V36.185H33.2408ZM33.2408 36.5202H32.2408V37.5202H33.2408V36.5202ZM41.2653 36.5202H42.2653V35.5202H41.2653V36.5202ZM41.2653 44V45H42.2653V44H41.2653ZM24.2525 44H23.2525V45H24.2525V44ZM24.2525 34.6136L23.8752 33.6875L23.2525 33.9412V34.6136H24.2525ZM28.2962 31.7642L27.5617 31.0856L27.5617 31.0856L28.2962 31.7642ZM31.0827 27.1967L30.1498 26.8368L30.1483 26.8407L31.0827 27.1967ZM30.6847 14.8562L29.7838 15.2904L29.7876 15.2982L30.6847 14.8562ZM26.7667 10.2678L27.3214 9.4357L27.3214 9.4357L26.7667 10.2678ZM16.4794 9.5554L16.8967 10.4642L16.9043 10.4606L16.4794 9.5554ZM12.9386 12.2372L13.6985 12.8873L12.9386 12.2372ZM10.6339 16.3228L11.5773 16.6543L11.5783 16.6516L10.6339 16.3228ZM10.8224 27.1967L9.88698 27.5503L9.89044 27.5592L10.8224 27.1967ZM13.63 31.7642L12.8955 32.4428L13.63 31.7642ZM17.6737 34.6136H18.6737V33.9412L18.0509 33.6875L17.6737 34.6136ZM17.6737 44V45H18.6737V44H17.6737ZM1.66087 44V36.5202H-0.339133V44H1.66087ZM0.660867 37.5202H8.68537V35.5202H0.660867V37.5202ZM9.68537 36.5202V36.185H7.68537V36.5202H9.68537ZM9.22348 35.3421C6.89079 33.8529 5.04995 31.9007 3.69148 29.4739L1.94631 30.4508C3.4652 33.1642 5.53534 35.3604 8.14726 37.0279L9.22348 35.3421ZM3.69148 29.4739C2.35279 27.0825 1.66087 24.1785 1.66087 20.7227H-0.339133C-0.339133 24.4462 0.407625 27.7021 1.94631 30.4508L3.69148 29.4739ZM1.66087 20.7227C1.66087 17.8748 2.13735 15.2861 3.07655 12.9447L1.22032 12.2001C0.1761 14.8034 -0.339133 17.6482 -0.339133 20.7227H1.66087ZM3.07655 12.9447C4.01937 10.5943 5.34809 8.58163 7.06133 6.89474L5.65813 5.46961C3.73974 7.35848 2.26093 9.60595 1.22032 12.2001L3.07655 12.9447ZM7.0641 6.892C8.78102 5.18829 10.8108 3.86395 13.1642 2.91995L12.4196 1.06372C9.82836 2.10314 7.57007 3.57236 5.65536 5.47234L7.0641 6.892ZM13.1624 2.92067C15.5189 1.98072 18.1153 1.50426 20.9631 1.50426V-0.49574C17.8885 -0.49574 15.0375 0.0195166 12.4214 1.06299L13.1624 2.92067ZM20.9631 1.50426C23.8109 1.50426 26.3996 1.98074 28.741 2.91995L29.4856 1.06372C26.8824 0.0194927 24.0376 -0.49574 20.9631 -0.49574V1.50426ZM28.7428 2.92067C31.1101 3.86492 33.1461 5.18924 34.862 6.892L36.2708 5.47234C34.3551 3.57141 32.089 2.10217 29.4838 1.06299L28.7428 2.92067ZM34.8648 6.89474C36.578 8.58163 37.9068 10.5943 38.8496 12.9447L40.7058 12.2001C39.6652 9.60595 38.1864 7.35848 36.268 5.46961L34.8648 6.89474ZM38.8496 12.9447C39.7888 15.2861 40.2653 17.8748 40.2653 20.7227H42.2653C42.2653 17.6482 41.75 14.8034 40.7058 12.2001L38.8496 12.9447ZM40.2653 20.7227C40.2653 24.1785 39.5733 27.0825 38.2347 29.4739L39.9798 30.4508C41.5185 27.7021 42.2653 24.4462 42.2653 20.7227H40.2653ZM38.2347 29.4739C36.8762 31.9007 35.0353 33.8529 32.7027 35.3421L33.7789 37.0279C36.3908 35.3604 38.4609 33.1642 39.9798 30.4508L38.2347 29.4739ZM32.2408 36.185V36.5202H34.2408V36.185H32.2408ZM33.2408 37.5202H41.2653V35.5202H33.2408V37.5202ZM40.2653 36.5202V44H42.2653V36.5202H40.2653ZM41.2653 43H24.2525V45H41.2653V43ZM25.2525 44V34.6136H23.2525V44H25.2525ZM24.6298 35.5397C26.2839 34.8658 27.7514 33.8274 29.0307 32.4428L27.5617 31.0856C26.4664 32.2711 25.2381 33.1323 23.8752 33.6875L24.6298 35.5397ZM29.0307 32.4428C30.311 31.057 31.3048 29.4228 32.0172 27.5527L30.1483 26.8407C29.5198 28.4906 28.6558 29.9013 27.5617 31.0856L29.0307 32.4428ZM32.0157 27.5567C32.7485 25.6575 33.1094 23.6067 33.1094 21.4141H31.1094C31.1094 23.3838 30.7859 25.1881 30.1498 26.8368L32.0157 27.5567ZM33.1094 21.4141C33.1094 18.8376 32.608 16.497 31.5817 14.4142L29.7876 15.2982C30.6609 17.0704 31.1094 19.1018 31.1094 21.4141H33.1094ZM31.5855 14.422C30.5776 12.3309 29.1569 10.6593 27.3214 9.4357L26.212 11.0998C27.7288 12.111 28.9201 13.4984 29.7838 15.2904L31.5855 14.422ZM27.3214 9.4357C25.4664 8.19905 23.3352 7.59162 20.9631 7.59162V9.59162C22.9769 9.59162 24.7147 10.1016 26.212 11.0998L27.3214 9.4357ZM20.9631 7.59162C19.2066 7.59162 17.5657 7.94084 16.0545 8.65016L16.9043 10.4606C18.1308 9.88492 19.479 9.59162 20.9631 9.59162V7.59162ZM16.0621 8.64663C14.5599 9.3364 13.2633 10.3193 12.1787 11.5872L13.6985 12.8873C14.5973 11.8365 15.6612 11.0315 16.8967 10.4642L16.0621 8.64663ZM12.1787 11.5872C11.0993 12.849 10.2717 14.3221 9.6895 15.994L11.5783 16.6516C12.0856 15.1947 12.7944 13.9441 13.6985 12.8873L12.1787 11.5872ZM9.69042 15.9913C9.10398 17.6604 8.81676 19.4711 8.81676 21.4141H10.8168C10.8168 19.6696 11.0743 18.086 11.5773 16.6543L9.69042 15.9913ZM8.81676 21.4141C8.81676 23.6043 9.1699 25.6529 9.88703 27.5503L11.7579 26.8432C11.1341 25.1928 10.8168 23.3863 10.8168 21.4141H8.81676ZM9.89044 27.5592C10.6167 29.4266 11.6166 31.0586 12.8955 32.4428L14.3645 31.0856C13.2688 29.8997 12.3971 28.4867 11.7544 26.8343L9.89044 27.5592ZM12.8955 32.4428C14.1747 33.8274 15.6422 34.8658 17.2964 35.5397L18.0509 33.6875C16.6881 33.1323 15.4597 32.2711 14.3645 31.0856L12.8955 32.4428ZM16.6737 34.6136V44H18.6737V34.6136H16.6737ZM17.6737 43H0.660867V45H17.6737V43Z" fill="black" fill-opacity="0.28"/>
</svg>
