<svg width="66" height="71" viewBox="0 0 66 71" fill="none" xmlns="http://www.w3.org/2000/svg">
<circle cx="33" cy="38" r="32" fill="black" stroke="white" stroke-width="2"/>
<path d="M12.6609 57V49.5202H20.6854V49.185C18.2131 47.6067 16.2576 45.5324 14.8189 42.9624C13.3802 40.3923 12.6609 37.3124 12.6609 33.7227C12.6609 30.7615 13.1567 28.0447 14.1484 25.5724C15.1402 23.1001 16.5439 20.9701 18.3597 19.1822C20.1755 17.3803 22.3196 15.9835 24.7919 14.9918C27.2782 14.0001 30.0019 13.5043 32.9631 13.5043C35.9242 13.5043 38.641 14.0001 41.1133 14.9918C43.5996 15.9835 45.7506 17.3803 47.5664 19.1822C49.3822 20.9701 50.786 23.1001 51.7777 25.5724C52.7694 28.0447 53.2653 30.7615 53.2653 33.7227C53.2653 37.3124 52.5459 40.3923 51.1072 42.9624C49.6686 45.5324 47.7131 47.6067 45.2408 49.185V49.5202H53.2653V57H36.2525V47.6136C37.761 46.9991 39.1089 46.0492 40.2962 44.7642C41.4834 43.4792 42.4123 41.9567 43.0827 40.1967C43.7672 38.4228 44.1094 36.4953 44.1094 34.4141C44.1094 31.9697 43.6345 29.7837 42.6847 27.8562C41.7488 25.9147 40.4428 24.3852 38.7667 23.2678C37.0906 22.1503 35.156 21.5916 32.9631 21.5916C31.3428 21.5916 29.8482 21.9129 28.4794 22.5554C27.1106 23.1839 25.9303 24.0779 24.9386 25.2372C23.9469 26.3965 23.1786 27.7584 22.6339 29.3228C22.0891 30.8732 21.8168 32.5703 21.8168 34.4141C21.8168 36.4953 22.152 38.4228 22.8224 40.1967C23.5069 41.9567 24.4427 43.4792 25.63 44.7642C26.8172 46.0492 28.1651 46.9991 29.6737 47.6136V57H12.6609Z" fill="white"/>
</svg>
